<mxfile host="app.diagrams.net" modified="2023-09-13T18:46:13.091Z" agent="Mozilla/5.0 (Windows NT 10.0; Win64; x64; rv:109.0) Gecko/20100101 Firefox/117.0" version="21.7.5" etag="8MOG26KzHyiG84rwBQrd" type="github">
  <diagram name="Strona-1" id="RpTPR10xtitpieQ-14La">
    <mxGraphModel>
      <root>
        <mxCell id="0" />
        <mxCell id="1" parent="0" />
      </root>
    </mxGraphModel>
  </diagram>
</mxfile>
